<svg xmlns="http://www.w3.org/2000/svg" version="1.1" width="512" height="512" viewBox="0 0 60 54">
	<path d="M34.718 2.756a5.416 5.416 0 0 0-9.436 0L.739 45.718A5.518 5.518 0 0 0 5.458 54h49.084a5.518 5.518 0 0 0 4.719-8.282zM54.542 52H5.458a3.519 3.519 0 0 1-2.982-5.29L27.018 3.748a3.417 3.417 0 0 1 5.964 0L57.524 46.71A3.518 3.518 0 0 1 54.542 52z" />
	<path d="M41 31h-2v-9a3 3 0 0 0-3-3h-8.48a3.01 3.01 0 0 0-2.894 2.2L20.2 37.14l-2.59.519 5.344-17.365a1 1 0 0 0-1.912-.588L13.323 44.8l-3.08-.771a1 1 0 0 0-.486 1.94c3.373.843 3.24.831 3.567.831a2 2 0 0 0 1.592-.8h4.435a3.481 3.481 0 0 0 6.3 0h7.113a4.494 4.494 0 0 0 7.476 0H43a2 2 0 0 0 2-2v-9a4 4 0 0 0-4-4zm-14.446-9.264A1 1 0 0 1 27.52 21H36a1 1 0 0 1 1 1v9h-1a3.914 3.914 0 0 0-1.62-3.195 2.992 2.992 0 1 0-4.761 0A3.982 3.982 0 0 0 28 31v4h-5.129l1.242-4.473 1.18 1.18a1 1 0 0 0 1.414-1.414l-1.98-1.979zM33 31a2 2 0 0 0-2 2v2h-1v-4a2 2 0 1 1 4 0zm-2-5a1 1 0 1 1 2 0 1 1 0 0 1-2 0zm-8.5 20a1.5 1.5 0 1 1 0-3 1.5 1.5 0 0 1 0 3zm14 0a2.5 2.5 0 1 1 0-5 2.5 2.5 0 0 1 0 5zm6.5-2h-2.051a4.479 4.479 0 1 0-8.9 0h-6.1a3.483 3.483 0 0 0-6.9 0h-3.39l1.283-4.167 4.258-.853a1 1 0 0 0 .767-.71l.348-1.27H31a2 2 0 0 0 2-2v-2h8a2 2 0 0 1 2 2z" />
</svg>
