<svg width="25" height="25" viewBox="0 0 25 25" fill="none" xmlns="http://www.w3.org/2000/svg">
<g id="credit-card (1) 1">
<path id="Vector" d="M24.9717 13.7504L23.0814 3.02976C22.9145 2.08328 22.0914 1.41736 21.1625 1.41736C21.05 1.41736 4.60848 4.30608 4.60848 4.30608C3.54745 4.49319 2.83895 5.505 3.02606 6.56604L3.20829 7.59959H18.0469C19.9293 7.59959 21.4608 9.13108 21.4608 11.0135V12.3816V15.7004V16.3504L23.3893 16.0103C24.4503 15.8233 25.1588 14.8114 24.9717 13.7504Z" fill="#F8991D"/>
<path id="Vector_2" d="M19.996 17.1636H0V21.6319C0 22.7093 0.873437 23.5827 1.95083 23.5827H18.0452C19.1226 23.5827 19.996 22.7093 19.996 21.6319V17.1636ZM5.80796 21.8251H2.48911C2.08511 21.8251 1.75757 21.4976 1.75757 21.0936C1.75757 20.6896 2.08511 20.362 2.48911 20.362H5.80796C6.21196 20.362 6.5395 20.6896 6.5395 21.0936C6.5395 21.4976 6.21201 21.8251 5.80796 21.8251Z" fill="#F8991D"/>
<path id="Vector_3" d="M0.00390625 10.9185H19.9951C19.9455 9.88521 19.0921 9.06274 18.0466 9.06274H1.95234C0.906836 9.06274 0.0535156 9.88521 0.00390625 10.9185Z" fill="#F8991D"/>
<path id="Vector_4" d="M0 12.3816H19.996V15.7004H0V12.3816Z" fill="#F8991D"/>
</g>
</svg>
