<svg width="26" height="26" viewBox="0 0 26 26" fill="none" xmlns="http://www.w3.org/2000/svg">
<g id="bank 1" clip-path="url(#clip0_89_268)">
<g id="Group">
<path id="Vector" d="M0.136255 25.6727C0.278341 25.8772 0.511883 25.9999 0.761828 25.9999H25.2381C25.4881 25.9999 25.7216 25.8772 25.8637 25.6727C26.0065 25.4673 26.0393 25.2055 25.9515 24.9712C25.6547 24.1775 25.0998 23.4812 24.8744 23.2194C24.7301 23.0506 24.5188 22.9531 24.2964 22.9531H1.70356C1.48114 22.9531 1.26989 23.0506 1.12557 23.2194C0.900207 23.4812 0.34527 24.1775 0.0484545 24.9712C-0.0392954 25.2055 -0.00659229 25.4673 0.136255 25.6727Z" fill="#F8991D"/>
<path id="Vector_2" d="M3.04688 12.2383H7.66797V21.4297H3.04688V12.2383Z" fill="#F8991D"/>
<path id="Vector_3" d="M10.7148 12.2383H15.2852V21.4297H10.7148V12.2383Z" fill="#F8991D"/>
<path id="Vector_4" d="M18.332 12.2383H22.9531V21.4297H18.332V12.2383Z" fill="#F8991D"/>
<path id="Vector_5" d="M1.64871 10.4905C1.79171 10.6341 1.99072 10.7148 2.18755 10.7148C2.18765 10.7148 2.1878 10.7147 2.18791 10.7147C2.18801 10.7147 2.18816 10.7148 2.18826 10.7143H23.8117C23.8118 10.7148 23.8119 10.7147 23.812 10.7147C23.8121 10.7147 23.8123 10.7148 23.8124 10.7148C24.0092 10.7148 24.2082 10.6341 24.3512 10.4905C24.5062 10.3356 25.6645 9.12925 25.9999 7.66797H0C0.335409 9.12925 1.49368 10.3356 1.64871 10.4905Z" fill="#F8991D"/>
<path id="Vector_6" d="M25.5148 6.14452L13.3403 0.0803232C13.126 -0.0267744 12.8731 -0.0267744 12.6589 0.0803232L0.484375 6.14452H25.5148Z" fill="#F8991D"/>
</g>
</g>
<defs>
<clipPath id="clip0_89_268">
<rect width="26" height="26" fill="white"/>
</clipPath>
</defs>
</svg>
