<svg width="55" height="55" viewBox="0 0 55 55" xmlns="http://www.w3.org/2000/svg">
<path d="M7.69678 40.9003C7.25097 40.9003 6.88954 41.2618 6.88954 41.7076C6.88954 42.212 6.47914 42.6224 5.97467 42.6224C5.4702 42.6224 5.05979 42.212 5.05979 41.7076C5.05979 41.2031 5.4702 40.7927 5.97467 40.7927C6.42048 40.7927 6.78191 40.4313 6.78191 39.9855C6.78191 39.5397 6.42048 39.1782 5.97467 39.1782C4.57997 39.1782 3.44531 40.3129 3.44531 41.7076C3.44531 43.1023 4.57997 44.2369 5.97467 44.2369C7.36936 44.2369 8.50402 43.1023 8.50402 41.7076C8.50402 41.2618 8.14259 40.9003 7.69678 40.9003Z" />
<path d="M34.3876 40.0392C33.9418 40.0392 33.5804 40.4007 33.5804 40.8465C33.5804 41.8257 32.7837 42.6224 31.8045 42.6224C30.8252 42.6224 30.0285 41.8257 30.0285 40.8465C30.0285 39.8672 30.8252 39.0705 31.8045 39.0705C32.2503 39.0705 32.6117 38.7091 32.6117 38.2633C32.6117 37.8175 32.2503 37.4561 31.8045 37.4561C29.935 37.4561 28.4141 38.977 28.4141 40.8465C28.4141 42.7159 29.935 44.2369 31.8045 44.2369C33.6739 44.2369 35.1949 42.7159 35.1949 40.8465C35.1949 40.4007 34.8335 40.0392 34.3876 40.0392Z" />
<path d="M54.1928 42.6224H41.2769C41.2472 42.6224 41.2231 42.5983 41.2231 42.5686V27.9306C41.2231 27.0107 40.4747 26.2623 39.5548 26.2623H37.7789V8.98739C37.7789 8.06746 37.0305 7.31909 36.1106 7.31909H30.9442C30.4984 7.31909 30.137 7.68052 30.137 8.12633C30.137 8.57214 30.4984 8.93357 30.9442 8.93357H32.7202V31.4739C32.4178 31.4449 32.1129 31.4287 31.8053 31.4287C31.4966 31.4287 31.1916 31.4441 30.8904 31.4732V27.1314C30.8904 26.3862 30.6934 25.6512 30.3208 25.0057L23.9813 14.0247C23.2753 12.5654 21.7769 11.6244 20.1541 11.6244H7.6957C6.301 11.6244 5.16634 12.759 5.16634 14.1537V28.8455H4.25147C2.38201 28.8455 0.861057 30.3665 0.861057 32.2359V38.2633C0.861057 38.3613 0.879354 38.4548 0.911429 38.5417C0.334844 39.4603 0 40.5452 0 41.7075C0 45.0014 2.67972 47.6811 5.97358 47.6811C8.68839 47.6811 10.9844 45.8601 11.7083 43.3758H23.3607C23.3625 43.3758 23.3642 43.3761 23.3661 43.3761C23.3677 43.3761 23.3692 43.3758 23.3708 43.3758H25.4578C26.4655 45.8956 28.93 47.6811 31.8052 47.6811C35.5738 47.6811 38.6398 44.6151 38.6398 40.8465C38.6398 39.6376 38.3229 38.5017 37.7699 37.5154C37.7751 37.4784 37.7788 37.4408 37.7788 37.4023V34.0003C37.7802 33.9732 37.7801 33.946 37.7788 33.919V27.8768H39.5547C39.5844 27.8768 39.6085 27.9009 39.6085 27.9306V42.5686C39.6085 43.4885 40.3569 44.2369 41.2768 44.2369H54.1927C54.6385 44.2369 54.9999 43.8755 54.9999 43.4297C54.9999 42.9838 54.6386 42.6224 54.1928 42.6224ZM36.1106 8.93357C36.1403 8.93357 36.1644 8.95768 36.1644 8.98739V26.2623H34.3346V8.93357H36.1106ZM22.5372 14.747C22.5466 14.7667 22.5567 14.7861 22.5677 14.805L28.685 25.4013H16.2524V15.8758C16.2524 15.43 15.891 15.0686 15.4452 15.0686C14.9994 15.0686 14.638 15.43 14.638 15.8758V25.4013H12.862C11.8828 25.4013 11.0861 24.6046 11.0861 23.6254V13.2389H20.1541C21.1678 13.2389 22.1032 13.8308 22.5372 14.747ZM6.78082 14.1537C6.78082 13.6493 7.19122 13.2389 7.6957 13.2389H9.47162V23.6254C9.47162 25.4948 10.9926 27.0158 12.862 27.0158H29.2221C29.239 27.0158 29.2555 27.0143 29.2721 27.0133C29.2738 27.0526 29.2759 27.092 29.2759 27.1314V31.7741C28.1629 32.0848 27.1325 32.5953 26.2257 33.2643L23.5566 30.5951C22.4283 29.4669 20.9282 28.8455 19.3327 28.8455H6.78082V14.1537ZM5.97358 46.0666C3.56994 46.0666 1.61448 44.1112 1.61448 41.7075C1.61448 39.3039 3.56994 37.3484 5.97358 37.3484C8.37722 37.3484 10.3327 39.3039 10.3327 41.7075C10.3327 44.1112 8.37722 46.0666 5.97358 46.0666ZM5.97358 35.734C4.6679 35.734 3.45962 36.1562 2.47554 36.8697V32.2359C2.47554 31.2567 3.27223 30.46 4.25147 30.46H19.3327C20.497 30.46 21.5916 30.9134 22.415 31.7367L25.0105 34.3322C23.3867 36.025 22.3875 38.3212 22.3875 40.8465C22.3875 41.1522 22.403 41.4577 22.4324 41.7614H11.9459C11.946 41.7434 11.9473 41.7256 11.9473 41.7075C11.9472 38.4137 9.26745 35.734 5.97358 35.734ZM24.0573 41.7614C24.022 41.4584 24.002 41.1527 24.002 40.8465C24.002 36.5437 27.5025 33.0432 31.8053 33.0432C33.3769 33.0432 34.8753 33.5029 36.1644 34.3744V35.5867C34.9804 34.6038 33.4608 34.0118 31.8053 34.0118C28.0367 34.0118 24.9706 37.0779 24.9706 40.8465C24.9706 41.1569 24.9934 41.4618 25.0336 41.7614H24.0573ZM31.8053 46.0666C28.9269 46.0666 26.5851 43.7249 26.5851 40.8465C26.5851 37.9681 28.9269 35.6263 31.8053 35.6263C34.6837 35.6263 37.0254 37.9681 37.0254 40.8465C37.0254 43.7249 34.6837 46.0666 31.8053 46.0666ZM36.1644 32.4948C35.5801 32.1883 34.9674 31.9474 34.3346 31.7717V27.8768H36.1644V32.4948Z" />
</svg>
