<svg width="228" height="228" viewBox="0 0 228 228" fill="none" xmlns="http://www.w3.org/2000/svg">
<g id="warehouse-management 1">
<g id="Group">
<path id="Vector" d="M160.301 66.997L164.16 68.7509V54.0186H153.637V68.7509L157.495 66.997C157.846 66.997 158.197 66.6462 158.898 66.6462C159.6 66.6462 159.951 66.997 160.301 66.997Z" fill="#F8991D"/>
<path id="Vector_2" d="M130.135 54.0186C128.381 54.0186 126.627 55.7724 126.627 57.5262V107.335C126.627 109.089 128.381 110.843 130.135 110.843H188.012C190.116 110.843 191.519 109.089 191.519 107.335V57.5262C191.519 55.7724 190.116 54.0186 188.012 54.0186H171.525V74.0124C171.525 75.0647 170.824 76.117 170.122 76.8186C169.07 77.5201 168.018 77.5201 166.965 77.1693L159.599 74.0124L151.532 77.1693C150.479 77.5201 149.076 77.5201 148.375 76.8186C147.322 76.117 146.972 75.0647 146.972 74.0124V54.0186H130.135Z" fill="#F8991D"/>
<path id="Vector_3" d="M157.847 129.434C158.198 129.434 158.548 129.083 159.25 129.083C159.951 129.083 160.302 129.083 160.653 129.434L164.511 131.188V116.455H153.988V131.188L157.847 129.434Z" fill="#F8991D"/>
<path id="Vector_4" d="M126.627 169.772C126.627 171.877 128.381 173.28 130.135 173.28H188.012C190.116 173.28 191.519 171.877 191.519 169.772V119.612C191.519 117.508 190.116 116.105 188.012 116.105H171.525V136.099C171.525 137.151 170.824 138.203 170.122 138.905C169.07 139.606 168.018 139.606 166.965 139.256L159.599 136.099L152.233 139.256C151.181 139.606 149.778 139.606 149.076 138.905C148.024 138.203 147.673 137.151 147.673 136.099V116.105H131.187C129.433 116.105 127.679 117.508 127.679 119.612V169.772H126.627Z" fill="#F8991D"/>
<path id="Vector_5" d="M27.361 224.492C33.1727 224.492 37.884 219.781 37.884 213.969C37.884 208.158 33.1727 203.446 27.361 203.446C21.5492 203.446 16.8379 208.158 16.8379 213.969C16.8379 219.781 21.5492 224.492 27.361 224.492Z" fill="#F8991D"/>
<path id="Vector_6" d="M76.818 224.492C82.6297 224.492 87.3411 219.781 87.3411 213.969C87.3411 208.158 82.6297 203.446 76.818 203.446C71.0063 203.446 66.2949 208.158 66.2949 213.969C66.2949 219.781 71.0063 224.492 76.818 224.492Z" fill="#F8991D"/>
<path id="Vector_7" d="M223.791 37.8831L125.575 3.50771C124.874 3.15694 123.822 3.15694 123.12 3.50771L24.9046 37.8831C23.1508 38.5846 22.4492 39.9877 22.4492 41.7416C22.4492 43.4954 24.2031 44.5477 25.9569 44.5477H39.6369V103.126H46.6523V44.8985H201.342V182.4H123.12V189.415H205.2C207.305 189.415 208.708 188.012 208.708 185.908V44.8985H222.388C224.142 44.8985 225.545 43.4954 225.895 42.0923C226.597 39.9877 225.545 38.5846 223.791 37.8831Z" fill="#F8991D"/>
<path id="Vector_8" d="M145.92 203.096H116.105V133.643C116.105 131.539 114.702 130.136 112.597 130.136C110.492 130.136 109.089 131.539 109.089 133.643V196.08H102.074V189.065C102.074 185.206 98.917 182.049 95.0585 182.049H93.3047C93.3047 181.699 92.9539 181.348 92.6031 181.348L74.7139 115.754C74.0124 112.597 71.2062 110.492 68.0493 110.492H21.7478C17.8893 110.492 14.7324 113.649 14.7324 117.508V168.369H8.76929C4.91083 168.369 1.75391 171.526 1.75391 175.385V210.462C1.75391 214.32 4.91083 217.477 8.76929 217.477H10.1724C9.8216 216.425 9.8216 215.022 9.8216 213.969C9.8216 204.148 17.5385 196.431 27.3601 196.431C37.1816 196.431 44.8985 204.148 44.8985 213.969C44.8985 215.022 44.8985 216.425 44.5478 217.477H59.6308C59.2801 216.425 59.2801 215.022 59.2801 213.969C59.2801 204.148 66.997 196.431 76.8185 196.431C86.6401 196.431 94.357 204.148 94.357 213.969C94.357 215.022 94.357 216.425 94.0062 217.477H98.917C100.671 217.477 102.425 216.074 102.425 213.969V203.096H109.44V206.252C109.44 208.357 110.843 209.76 112.948 209.76H146.271C148.375 209.76 149.779 208.357 149.779 206.252C149.779 204.148 148.025 203.096 145.92 203.096ZM68.0493 153.286C66.6462 152.234 64.1908 152.585 63.1385 153.988L53.6678 167.317C52.6154 168.72 52.9662 171.176 54.3693 172.228C56.1231 173.28 58.2278 172.929 59.2801 171.526L62.0862 167.668L82.4308 182.4H51.5631L40.6893 169.772C39.9878 169.071 38.9354 168.369 37.8831 168.369H21.7478V117.508H68.0493L83.8339 174.683L66.2954 161.705L69.1016 157.846C69.8031 156.443 69.4524 154.339 68.0493 153.286Z" fill="#F8991D"/>
</g>
</g>
</svg>
